<svg width="1478" height="202" xmlns="http://www.w3.org/2000/svg">
  <g transform="translate(-80 -98)" fill="none" fill-rule="evenodd">
    <path d="M148.477 230.28c2.544 5.565 5.826 10.592 9.745 14.998-8.64 4.649-17.695 6.722-27.565 6.722C101.302 252 80 232.657 80 201.784c0-31.092 22.39-50.435 50.657-50.435 10.059 0 17.991 2.184 25.984 6.456-3.727 4.576-6.801 9.768-9.137 15.484-4.823-1.93-9.785-2.81-14.896-2.81-17.393 0-30.873 11.088-30.873 31.305 0 19.13 13.048 31.306 31.747 31.306 5.357 0 10.303-.97 14.995-2.81zm59.035-78.93c28.911 0 49.783 20.436 49.783 50.434 0 29.786-20.872 50.216-49.783 50.216-28.692 0-49.561-20.43-49.561-50.216 0-29.998 20.87-50.435 49.561-50.435zm0 18.477c-16.085 0-27.826 12.395-27.826 31.957 0 19.352 11.74 31.738 27.826 31.738 16.526 0 28.047-12.386 28.047-31.738 0-19.562-11.52-31.957-28.047-31.957zm63.482 80v-96.306h21.515v96.306h-21.515zm-2.832-125.872c0-7.39 6.31-13.259 13.48-13.259 7.177 0 13.48 5.87 13.48 13.26 0 7.61-6.303 13.7-13.48 13.7-7.17 0-13.48-6.09-13.48-13.7zm43.123 35.657c13.48-5.217 30.006-8.263 44.13-8.263 24.57 0 40.222 9.349 40.222 36.522v61.956h-21.302v-59.996c0-13.914-8.697-18.92-20.657-18.92-7.61 0-15.211 1.088-20.87 2.827v76.09h-21.523v-90.216zM413.659 102h21.516v54.134c4.564-2.392 13.48-4.784 21.955-4.784 27.827 0 48.697 17.823 48.697 48.696 0 31.083-20.65 51.953-56.298 51.953-13.913 0-26.087-2.825-35.87-6.302V102zm21.516 129.57c4.131 1.299 9.57 1.952 14.998 1.952 19.784 0 33.919-10.867 33.919-33.044 0-18.698-13.26-29.785-29.566-29.785-8.476 0-15 2.179-19.351 4.571v56.307zm132.82-46.31c0-10.436-7.83-15.212-18.478-15.212-11.088 0-19.784 3.257-27.826 7.822v-18.7c8.475-4.775 19.343-7.821 31.305-7.821 21.081 0 36.081 8.696 36.081 32.823v63.696c-9.128 2.392-22.168 3.918-33.036 3.918-25.001 0-43.266-7.609-43.266-29.352 0-19.563 16.738-29.125 44.564-29.125h10.656v-8.05zm0 22.395h-9.13c-15.006 0-24.787 4.343-24.787 14.126 0 10.001 9.135 13.913 22.176 13.913 3.266 0 7.83-.432 11.74-1.087v-26.952zm36.735 16.085c8.916 6.737 19.563 10.869 29.344 10.869 9.57 0 15.874-3.26 15.874-10.869 0-7.83-5.651-10.655-18.045-13.913-19.997-4.564-28.48-12.606-28.48-29.346 0-19.57 14.787-29.13 34.35-29.13 10.868 0 19.564 2.391 27.606 7.388v19.783c-8.474-6.083-16.738-9.781-26.952-9.781-9.349 0-14.346 4.564-14.346 10.868 0 6.302 4.124 9.568 15.212 12.606 21.963 4.784 31.525 13.048 31.525 30.44 0 20.215-15.433 29.344-36.303 29.344-11.308 0-22.609-3.038-29.785-7.822V223.74zm95.543-17.17v.432c1.307 17.17 16.086 26.52 31.084 26.52 13.26 0 22.829-3.045 32.39-9.35v18.92c-8.695 6.082-21.522 8.907-33.908 8.907-29.999 0-50.435-19.13-50.435-49.561 0-30.652 19.995-51.088 46.523-51.088 28.04 0 41.3 18.044 41.3 44.344v10.875h-66.954zm46.737-13.914c-.433-15.007-7.823-23.262-21.736-23.262-12.394 0-21.522 8.696-24.348 23.262h46.084z" fill="#0667D0"/>
    <rect fill="#AAB4C0" x="844" y="98" width="7" height="202" rx="3.5"/>
    <path d="M1004.302 159.29c-7.776-4.698-16.848-7.29-26.568-7.29C950.032 152 928 172.088 928 201.734c0 29.484 20.574 49.734 49.734 49.734 9.72 0 19.44-2.592 27.054-7.128v-11.502c-6.966 6.48-17.01 9.558-27.216 9.558-21.708 0-39.366-15.876-39.366-40.662s17.658-40.662 39.366-40.662c10.206 0 19.764 3.24 26.73 9.882V159.29zm7.587 55.242c0-21.87 14.418-36.936 35.478-36.936 21.06 0 35.478 15.066 35.478 36.936 0 21.87-14.418 36.936-35.478 36.936-21.06 0-35.478-15.066-35.478-36.936zm61.074 0c0-17.172-10.692-28.512-25.596-28.512s-25.596 11.34-25.596 28.512 10.692 28.512 25.596 28.512 25.596-11.34 25.596-28.512zm110.944 35.316h9.72V202.22c0-17.658-9.235-24.624-26.245-24.624-8.586 0-17.658 2.268-26.082 5.508-4.373-3.726-10.691-5.508-18.953-5.508-9.397 0-19.117 2.43-28.35 6.156v66.096h9.72v-60.264c4.373-1.62 10.691-3.24 18.63-3.24 8.1 0 16.686 3.078 16.686 16.2v47.304h9.72v-47.79c0-4.698-.81-8.586-2.106-11.664 4.212-1.944 12.312-4.05 20.736-4.05 7.613 0 16.524 3.078 16.524 16.2v47.304zm115.317 0h9.72V202.22c0-17.658-9.234-24.624-26.244-24.624-8.586 0-17.658 2.268-26.082 5.508-4.374-3.726-10.692-5.508-18.954-5.508-9.396 0-19.116 2.43-28.35 6.156v66.096h9.72v-60.264c4.374-1.62 10.692-3.24 18.63-3.24 8.1 0 16.686 3.078 16.686 16.2v47.304h9.72v-47.79c0-4.698-.81-8.586-2.106-11.664 4.212-1.944 12.312-4.05 20.736-4.05 7.614 0 16.524 3.078 16.524 16.2v47.304zm83.241-34.83h-53.46v.324c0 17.334 12.474 27.54 26.244 27.54 10.044 0 17.01-2.592 24.138-7.938v9.72c-6.318 4.698-15.39 6.804-24.138 6.804-20.412 0-35.964-13.932-35.964-36.936 0-21.222 14.58-36.936 33.534-36.936 17.82 0 29.646 10.692 29.646 30.78v6.642zm-52.812-8.1h43.092c-.648-14.742-8.586-20.736-20.412-20.736-11.016 0-19.926 7.452-22.68 20.736zm73.36-16.038v58.968h-9.72v-64.152c7.451-4.698 16.523-7.614 26.243-7.614 3.888 0 7.776.486 11.826 1.458v9.558c-4.212-1.458-9.234-1.782-12.474-1.782-6.966 0-12.15 1.458-15.876 3.564zm85.022-7.938v10.206c-5.994-4.212-13.122-6.642-19.764-6.642-14.58 0-27.216 9.72-27.216 28.188 0 17.82 12.474 27.864 27.864 27.864 7.452 0 13.77-2.43 20.25-6.642v10.206c-6.966 3.564-13.77 5.346-21.222 5.346-19.764 0-36.774-13.77-36.774-36.936 0-23.652 17.496-36.936 36.612-36.936 7.776 0 13.932 1.782 20.25 5.346zm69.796 32.076h-53.46v.324c0 17.334 12.474 27.54 26.244 27.54 10.044 0 17.01-2.592 24.138-7.938v9.72c-6.318 4.698-15.39 6.804-24.138 6.804-20.412 0-35.964-13.932-35.964-36.936 0-21.222 14.58-36.936 33.534-36.936 17.82 0 29.646 10.692 29.646 30.78v6.642zm-52.812-8.1h43.092c-.648-14.742-8.586-20.736-20.412-20.736-11.016 0-19.926 7.452-22.68 20.736z" fill="#202A36"/>
  </g>
</svg>
